<svg xmlns="http://www.w3.org/2000/svg" xmlns:xlink="http://www.w3.org/1999/xlink" width="61.8" height="61.82" viewBox="0 0 61.8 61.82">
  <defs>
    <clipPath id="clip-path">
      <rect id="crop" width="28" height="38" fill="none"/>
    </clipPath>
    <clipPath id="clip-path-2">
      <rect id="Rectangle_37" data-name="Rectangle 37" width="1296.4" height="598.279" transform="translate(-1006.133 -232.419)" fill="none"/>
    </clipPath>
  </defs>
  <g id="adresse" transform="translate(-601.45 -50.52)">
    <ellipse id="Ellipse_1708" data-name="Ellipse 1708" cx="28.9" cy="28.91" rx="28.9" ry="28.91" transform="translate(603.45 52.52)" fill="none" stroke="#000" stroke-width="4"/>
    <g id="Location">
      <g id="Location-2" data-name="Location" transform="translate(618 62)" clip-path="url(#clip-path)">
        <g id="Groupe_74" data-name="Groupe 74">
          <g id="Groupe_73" data-name="Groupe 73" clip-path="url(#clip-path-2)">
            <path id="Tracé_21" data-name="Tracé 21" d="M14.236,36.769C14.8,36.769,26.6,20,26.6,13.532S21.065,1.825,14.236,1.825,1.872,7.066,1.872,13.532,13.677,36.769,14.236,36.769Z" fill="none" stroke="#fff" stroke-width="2.198"/>
            <ellipse id="Ellipse_1" data-name="Ellipse 1" cx="4.592" cy="4.348" rx="4.592" ry="4.348" transform="translate(9.644 8.748)" fill="none" stroke="#fff" stroke-width="2.198"/>
          </g>
        </g>
      </g>
      <path id="Color_Overlay" data-name="Color Overlay" d="M625.844,89.576c-2.23-3.693-5.972-10.426-5.972-14.043a11.332,11.332,0,0,1,3.621-8.28,12.861,12.861,0,0,1,17.488,0,11.332,11.332,0,0,1,3.621,8.28c0,3.615-3.742,10.35-5.972,14.043-3.04,5.031-6.108,9.193-6.391,9.193S628.883,94.607,625.844,89.576Zm1.8-14.479a4.6,4.6,0,1,0,4.593-4.348A4.481,4.481,0,0,0,627.645,75.1Z" fill="none" stroke="#000" stroke-width="3"/>
    </g>
  </g>
</svg>
