<svg xmlns="http://www.w3.org/2000/svg" width="27" height="42" viewBox="0 0 27 42">
  <g id="location" transform="translate(-153 -3306)">
    <path id="Color_Overlay" data-name="Color Overlay" d="M153,3341.848c0-3.29,4.537-4.959,7.744-5.605-2.885-4.131-7.744-11.65-7.744-16.626a13.5,13.5,0,1,1,27,0c0,4.982-4.873,12.515-7.744,16.626,3.207.646,7.744,2.315,7.744,5.605,0,4.7-8.74,6.152-13.5,6.152S153,3346.552,153,3341.848Zm2.454,0c0,2.054,6.017,3.691,11.046,3.691s11.046-1.635,11.046-3.691c0-.979-2.192-2.677-6.88-3.387-1.79,2.436-3.137,4.07-3.221,4.172a1.225,1.225,0,0,1-1.89,0c-.084-.1-1.431-1.736-3.221-4.172C157.647,3339.17,155.454,3340.868,155.454,3341.848Zm0-22.231c0,5.215,7.262,15.484,11.046,20.273,3.783-4.791,11.046-15.062,11.046-20.273a11.046,11.046,0,1,0-22.091,0Zm4.91-.012a6.136,6.136,0,1,1,6.136,6.153A6.2,6.2,0,0,1,160.364,3319.6Zm1.753,0a4.384,4.384,0,1,0,4.383-4.453A4.394,4.394,0,0,0,162.117,3319.6Z" fill="#ffc333"/>
  </g>
</svg>
