<svg xmlns="http://www.w3.org/2000/svg" width="27.729" height="37.946" viewBox="0 0 27.729 37.946">
  <path id="Color_Overlay" data-name="Color Overlay" d="M625.844,89.576c-2.23-3.693-5.972-10.426-5.972-14.043a11.332,11.332,0,0,1,3.621-8.28,12.861,12.861,0,0,1,17.488,0,11.332,11.332,0,0,1,3.621,8.28c0,3.615-3.742,10.35-5.972,14.043-3.04,5.031-6.108,9.193-6.391,9.193S628.883,94.607,625.844,89.576Zm1.8-14.479a4.6,4.6,0,1,0,4.593-4.348A4.481,4.481,0,0,0,627.645,75.1Z" transform="translate(-618.371 -62.324)" fill="none" stroke="#000" stroke-width="3"/>
</svg>
