<svg xmlns="http://www.w3.org/2000/svg" xmlns:xlink="http://www.w3.org/1999/xlink" width="34" height="34" viewBox="0 0 34 34">
  <defs>
    <clipPath id="clip-path11">
      <rect id="crop" width="34" height="34" transform="translate(0 1.687)" fill="none"/>
    </clipPath>
    <clipPath id="clip-path-211">
      <path id="Tracé_17" data-name="Tracé 17" d="M25.442,33.64a16.445,16.445,0,0,1-5.9-1.762,33.561,33.561,0,0,1-11.158-8.7,30.54,30.54,0,0,1-5.443-9.027A10.711,10.711,0,0,1,2.1,9.434,3.45,3.45,0,0,1,3.141,7.2L5.719,4.631A1.722,1.722,0,0,1,6.868,4.1a1.62,1.62,0,0,1,1.1.527l.023.023c.461.429.9.873,1.361,1.348.234.241.476.482.718.73l2.064,2.055a1.433,1.433,0,0,1,0,2.334c-.219.218-.431.437-.65.647-.635.647-1.24,1.25-1.9,1.837-.015.015-.03.023-.038.038a1.531,1.531,0,0,0-.393,1.709l.023.068a16.489,16.489,0,0,0,2.442,3.968l.008.008a27.707,27.707,0,0,0,6.713,6.083,10.335,10.335,0,0,0,.93.5c.272.136.529.264.748.4.03.015.06.038.091.053a1.644,1.644,0,0,0,.748.188A1.619,1.619,0,0,0,22.01,26.1L24.6,23.521a1.713,1.713,0,0,1,1.142-.565,1.542,1.542,0,0,1,1.089.55l.015.015,4.165,4.148a1.485,1.485,0,0,1,.008,2.357c-.008,0-.008.008,0,0-.295.316-.6.6-.922.919a19.832,19.832,0,0,0-1.459,1.506,3.651,3.651,0,0,1-2.842,1.2c-.113,0-.234,0-.348-.008M4.283,3.17l-.015.015L1.7,5.768a5.5,5.5,0,0,0-1.64,3.5,13.151,13.151,0,0,0,.968,5.586,32.39,32.39,0,0,0,5.783,9.607A35.554,35.554,0,0,0,18.654,33.7a18.512,18.512,0,0,0,6.652,1.958c.159.008.325.015.476.015a5.707,5.707,0,0,0,4.362-1.867c.008-.015.023-.023.03-.038A17.147,17.147,0,0,1,31.5,32.4c.325-.309.658-.632.983-.971a3.749,3.749,0,0,0,1.142-2.6,3.612,3.612,0,0,0-1.164-2.582L28.308,22.1a3.529,3.529,0,0,0-2.555-1.167,3.65,3.65,0,0,0-2.585,1.159l-2.389,2.372c-.2-.105-.393-.2-.582-.3-.272-.136-.529-.264-.748-.4a25.926,25.926,0,0,1-6.222-5.647,15.246,15.246,0,0,1-2.041-3.207c.62-.565,1.194-1.152,1.754-1.717.212-.211.423-.429.635-.64a3.445,3.445,0,0,0,0-5.21L11.51,5.286c-.234-.233-.476-.474-.7-.715-.454-.467-.93-.949-1.421-1.4A3.585,3.585,0,0,0,6.853,2.063,3.71,3.71,0,0,0,4.283,3.17" fill="none"/>
    </clipPath>
  </defs>
  <g id="phone2" transform="translate(0 -1.687)" clip-path="url(#clip-path11)">
    <g id="Groupe_66" data-name="Groupe 66">
      <g id="Groupe_65" data-name="Groupe 65" clip-path="url(#clip-path-211)">
        <rect id="Rectangle_33" data-name="Rectangle 33" width="34.352" height="34.362" transform="translate(-0.352 1.687)"/>
      </g>
    </g>
  </g>
</svg>
