<svg xmlns="http://www.w3.org/2000/svg" width="33.596" height="33.609" viewBox="0 0 33.596 33.609">
  <g id="phone1" transform="translate(-146 -3395.376)">
    <path id="Color_Overlay" data-name="Color Overlay" d="M171.306,3432.97a18.5,18.5,0,0,1-6.652-1.958,35.55,35.55,0,0,1-11.847-9.238,32.382,32.382,0,0,1-5.783-9.607,13.136,13.136,0,0,1-.967-5.586,5.5,5.5,0,0,1,1.64-3.5l2.57-2.582.015-.015a3.71,3.71,0,0,1,2.57-1.106,3.585,3.585,0,0,1,2.533,1.106c.491.452.967.934,1.421,1.4.227.241.469.482.7.716l2.064,2.056a3.445,3.445,0,0,1,0,5.21c-.212.211-.423.429-.635.64-.559.564-1.133,1.152-1.753,1.716a15.243,15.243,0,0,0,2.041,3.208,25.914,25.914,0,0,0,6.222,5.647c.219.135.476.264.748.4.189.1.385.2.582.3l2.389-2.372a3.651,3.651,0,0,1,2.586-1.16,3.531,3.531,0,0,1,2.555,1.167l4.15,4.148a3.611,3.611,0,0,1,1.165,2.583,3.746,3.746,0,0,1-1.142,2.6c-.325.339-.657.662-.982.971a17.008,17.008,0,0,0-1.323,1.363c-.008.015-.023.023-.031.038a5.706,5.706,0,0,1-4.362,1.868C171.631,3432.985,171.465,3432.978,171.306,3432.97Zm-19.587-31.027-2.578,2.568a3.448,3.448,0,0,0-1.044,2.236,10.714,10.714,0,0,0,.847,4.713,30.538,30.538,0,0,0,5.443,9.027,33.566,33.566,0,0,0,11.158,8.7,16.447,16.447,0,0,0,5.9,1.761c.113.008.235.008.348.008a3.652,3.652,0,0,0,2.842-1.2,19.936,19.936,0,0,1,1.459-1.507c.325-.316.627-.6.923-.918l0,0s0,0,0,0a1.485,1.485,0,0,0-.007-2.357l-4.166-4.148-.014-.015a1.544,1.544,0,0,0-1.089-.549,1.712,1.712,0,0,0-1.141.564l-2.586,2.575a1.622,1.622,0,0,1-1.149.519,1.642,1.642,0,0,1-.748-.188c-.031-.015-.061-.038-.091-.052-.22-.136-.476-.264-.749-.4a10.467,10.467,0,0,1-.93-.5,27.706,27.706,0,0,1-6.713-6.084l-.007-.007a16.475,16.475,0,0,1-2.442-3.967l-.023-.068a1.53,1.53,0,0,1,.392-1.709c.008-.014.023-.023.038-.038.658-.587,1.263-1.189,1.9-1.837.219-.211.43-.429.65-.647a1.434,1.434,0,0,0,0-2.334l-2.064-2.055c-.242-.249-.484-.49-.718-.731-.461-.474-.9-.918-1.361-1.347l-.023-.022a1.619,1.619,0,0,0-1.1-.528A1.72,1.72,0,0,0,151.719,3401.943Z" transform="translate(-0.026 -4)" fill="#ffc333"/>
  </g>
</svg>
